<svg xmlns="http://www.w3.org/2000/svg" width="110" height="110" viewBox="0 0 110 110"><defs><clipPath id="3pmxa"><path d="M43 74h67v30a6 6 0 0 1-6 6H43zM6 0h29v67H0V6a6 6 0 0 1 6-6zm37 0h61a6 6 0 0 1 6 6v61H82V28H43zM0 75h35v35H6a6 6 0 0 1-6-6zm43-39h31v31H43z"/></clipPath></defs><g><g><g><path fill="#0078ff" d="M43 74h67v30a6 6 0 0 1-6 6H43zM6 0h29v67H0V6a6 6 0 0 1 6-6zm37 0h61a6 6 0 0 1 6 6v61H82V28H43zM0 75h35v35H6a6 6 0 0 1-6-6zm43-39h31v31H43z"/></g><g clip-path="url(#3pmxa)" opacity=".5"><path fill="#fcfcfc" d="M0 0h110v110H0z"/></g><g clip-path="url(#3pmxa)"><path fill="#d4dae3" d="M-2-3h38v118H-2zm45 77h67v36H43z"/></g></g></g></svg>