<svg xmlns="http://www.w3.org/2000/svg" width="76" height="76" viewBox="0 0 76 76"><g><g><g><path fill="#fcfcfc" d="M38 0c20.987 0 38 17.013 38 38S58.987 76 38 76 0 58.987 0 38 17.013 0 38 0z"/></g><g><g><path fill="#959da8" d="M54.178 62l-5.172-10.106c4.572-3.3 7.538-8.603 7.538-14.583 0-10.006-8.303-18.118-18.544-18.118s-18.544 8.112-18.544 18.118c0 5.98 2.966 11.283 7.538 14.583L21.822 62C13.51 56.789 8 47.679 8 37.31 8 21.123 21.43 8 38 8c16.569 0 30 13.123 30 29.311C68 47.68 62.491 56.79 54.178 62zM38 55.43a18.748 18.748 0 0 1-11.006-3.536L38 30.387l11.006 21.507A18.749 18.749 0 0 1 38 55.429z"/></g></g></g></g></svg>