<svg xmlns="http://www.w3.org/2000/svg" width="248" height="40" viewBox="0 0 248 40"><g><g><path fill="#f6f6f6" d="M34.114 40l-3.743-7.487a13.4 13.4 0 0 0 5.455-10.8c0-7.413-6.008-13.422-13.42-13.422-7.413 0-13.421 6.01-13.421 13.421a13.4 13.4 0 0 0 5.456 10.8L10.697 40C4.68 36.14.693 29.392.693 21.712.693 9.721 10.414 0 22.406 0c11.99 0 21.712 9.72 21.712 21.712 0 7.68-3.987 14.428-10.004 18.288zm-11.708-4.867c-2.983 0-5.737-.974-7.965-2.62l7.965-15.93 7.965 15.93a13.358 13.358 0 0 1-7.965 2.62zm84.547-13.473c0 5.364-4.26 9.44-9.966 9.44-5.68 0-9.94-4.05-9.94-9.44 0-5.364 4.26-9.335 9.94-9.335 5.706 0 9.966 3.997 9.966 9.335zm-15.12.026c0 3.103 2.393 5.496 5.207 5.496 2.84 0 5.1-2.393 5.1-5.496 0-3.103-2.26-5.443-5.1-5.443s-5.207 2.34-5.207 5.443zm27.267 4.023h-3.682v5.18h-4.68V12.483h8.23c4.864 0 7.652 2.314 7.652 6.416 0 2.813-1.183 4.838-3.34 5.916l3.866 6.074h-5.312zm-.132-3.681c2.025 0 3.208-1.026 3.208-2.972 0-1.92-1.183-2.892-3.208-2.892h-3.55v5.864zm16.801-5.864v3.655h8.783V23.5h-8.783v3.708h10.019v3.68h-14.699V12.484h14.41v3.68zm19.642 14.725l-7.152-18.406h4.995l4.707 13.542 4.707-13.542h4.812l-7.231 18.406zm31.762-7.73c0 4.864-3.234 7.94-8.388 7.94-5.18 0-8.493-3.076-8.493-7.94V12.482h4.68v10.675c0 2.498 1.605 4.024 3.84 4.024 2.209 0 3.707-1.526 3.707-4.024V12.483h4.654zm8.335 4.338l-1.34 3.392h-4.813l7.941-18.406h4.812l7.757 18.406h-4.996l-1.315-3.392zm4.05-10.36l-2.683 6.81h5.312zm21.692 8.572h-3.682v5.18h-4.68V12.483h8.23c4.865 0 7.652 2.314 7.652 6.416 0 2.813-1.183 4.838-3.34 5.916l3.866 6.074h-5.312zm-.132-3.681c2.025 0 3.208-1.026 3.208-2.972 0-1.92-1.183-2.892-3.208-2.892h-3.55v5.864zm20.64-5.785v14.646h-4.68V16.243h-5.496v-3.786h15.725v3.786zM68.096 14.37l-1.757 3.645c-1.94-1.127-4.38-1.914-5.874-1.914-1.206 0-2.019.446-2.019 1.337 0 3.173 9.702 1.364 9.702 7.997 0 3.671-3.251 5.612-7.342 5.612-3.068 0-6.214-1.154-8.39-2.937l1.809-3.592c1.888 1.652 4.72 2.753 6.634 2.753 1.468 0 2.386-.55 2.386-1.6 0-3.25-9.702-1.31-9.702-7.813 0-3.383 2.91-5.533 7.316-5.533 2.648 0 5.349.813 7.237 2.045zm12.373 1.914V30.89h-4.667V16.284h-5.48V12.51h15.68v3.775z"/></g></g></svg>