<svg xmlns="http://www.w3.org/2000/svg" width="60" height="54" viewBox="0 0 60 54"><g><g><g><g><path fill="#fff" d="M46.178 54l-5.172-10.107c4.572-3.3 7.538-8.602 7.538-14.582 0-10.006-8.303-18.118-18.544-18.118s-18.544 8.112-18.544 18.118c0 5.98 2.966 11.283 7.538 14.582L13.822 54C5.51 48.789 0 39.679 0 29.31 0 13.123 13.43 0 30 0c16.569 0 30 13.123 30 29.311C60 39.68 54.491 48.79 46.178 54zM30 47.43a18.748 18.748 0 0 1-11.006-3.537L30 22.387l11.006 21.506A18.748 18.748 0 0 1 30 47.43z"/></g></g></g></g></svg>