<?xml version="1.0" encoding="utf-8"?><svg xmlns="http://www.w3.org/2000/svg" xmlns:xlink="http://www.w3.org/1999/xlink"><symbol viewBox="0 0 30 19" id="be" xmlns="http://www.w3.org/2000/svg"><path d="M0 19S-.007 6.312-.007.02C.099.014.198.001.296.001L8.711 0c.971 0 1.937.068 2.88.307.806.204 1.544.552 2.139 1.155.607.616 1.056 1.372 1.185 2.215a5.88 5.88 0 0 1-.037 2.044c-.188.956-.814 1.704-1.58 2.28-.29.218-.606.4-.956.627.174.065.324.12.473.177.61.239 1.174.555 1.636 1.03.57.587 1.178 1.292 1.372 2.082.258 1.051.267 2.103-.043 3.146-.328 1.105-1.242 1.967-2.192 2.608-.955.644-2.026.978-3.158 1.116-.507.062-.918.212-1.43.213-3.274.01-9 0-9 0zm4-3s2.468.018 5 0c.924 0 2.917-.068 3-2.469 0-1.363-.268-2.499-3-2.531-2.632-.031-5 0-5 0zm0-8h4s2.303-.143 2.91-1.683c.178-.452.188-.93.117-1.418C10.87 3.84 9.3 3.015 8 3c-3.558-.04-4 0-4 0zm15.915 3.98c.415 4.18 2.91 4.031 3.942 4.031 1.25 0 2.708-1.035 3.198-2h2.87c-.098.421-.275 1.113-.452 1.491-.83 1.776-2.257 2.98-4.15 3.357-1.497.297-2.849.229-4.307-.285-2.771-.977-3.983-3.614-3.983-7.302 0-3.603 1.752-6.376 4.377-7.037 1.555-.391 3.548-.343 5.039.294 2.695 1.292 3.306 3.934 3.495 7.356 0 .02-.015.04-.037.094h-9.992zm.059-1.98h7.07c-.084-2.583-2.247-2.971-3.56-2.971-1.844 0-3.51 1.123-3.51 2.97zM27 3h-8V1h8v2z"/></symbol><symbol viewBox="0 0 344.96 344.96" id="check" xmlns="http://www.w3.org/2000/svg"><g data-name="Слой 2"><path d="M321.85 86.24l-40-23.11-23.1-40H212.5L172.48 0l-40 23.11H86.24l-23.11 40-40 23.1v46.21L0 172.48l23.11 40v46.21l40 23.11 23.11 40h46.21l40 23.1 40-23.11h46.21l23.11-40 40-23.11V212.5l23.11-40-23.11-40V86.24zM156.91 243.07a16.79 16.79 0 0 1-23.34 0l-50.45-50.44a16.19 16.19 0 0 1 0-22.89l13.35-13.35a16.19 16.19 0 0 1 22.89 0l25.87 25.87 80.34-80.35a16.19 16.19 0 0 1 22.89 0l13.35 13.35a16.19 16.19 0 0 1 0 22.89z" data-name="Capa 1"/></g></symbol><symbol viewBox="0 0 30 30" id="drib" xmlns="http://www.w3.org/2000/svg"><path d="M15.004 0c8.279.004 15.002 6.731 14.997 15.005-.005 8.28-6.732 15.002-15.006 14.996-8.28-.006-15.001-6.73-14.996-15.005C.004 6.716 6.729-.005 15.004-.001zm1.835 17.384a15.45 15.45 0 0 0-5.152 2.853 17.188 17.188 0 0 0-3.63 4.15c3.63 2.75 8.222 2.752 11.08 1.514a57.66 57.66 0 0 0-2.298-8.517zM3.3 14.834c0 2.911.918 5.45 2.737 7.66.533-.676 1.044-1.345 1.58-1.994a13.876 13.876 0 0 1 1.766-1.81 35.113 35.113 0 0 1 1.99-1.561 13.029 13.029 0 0 1 2.18-1.276c.762-.35 1.535-.675 2.31-1.014l-.663-1.513c-3.881 1.2-7.842 1.594-11.9 1.508zm.335-2.662c3.55.06 6.987-.302 10.364-1.294-1.205-2.275-2.55-4.407-4.18-6.367-3.161 1.667-5.22 4.182-6.184 7.661zm18.638-6.297c-2.878-2.405-6.952-3.035-9.738-2.266.762 1.002 1.493 2.018 2.137 3.093.643 1.073 1.27 2.156 1.905 3.238 1.896-.739 4.25-2.266 5.696-4.065zm-.656 18.741a11.6 11.6 0 0 0 3.69-4.12c.561-1.048.97-2.157 1.173-3.348-2.325-.525-4.641-.728-7.018-.373a61.304 61.304 0 0 1 2.155 7.841zm2.567-16.84c-1.804 2.05-3.998 3.516-6.468 4.615l.783 1.818a20.616 20.616 0 0 1 4.102-.274c1.365.049 2.712.242 4.078.511-.135-2.508-.972-4.697-2.495-6.67z"/></symbol><symbol viewBox="0 0 30 23" id="email" xmlns="http://www.w3.org/2000/svg"><path d="M2 0h26a2 2 0 0 1 2 2v19a2 2 0 0 1-2 2H2a2 2 0 0 1-2-2V2a2 2 0 0 1 2-2zm10.738 13.15C13.928 14.384 14.406 15 15 15c.594 0 1.002-.604 2.165-1.804C22.383 7.807 27 3 27 3H3s6.5 6.796 9.738 10.15z"/></symbol><symbol viewBox="0 0 30 30" id="fb" xmlns="http://www.w3.org/2000/svg"><path d="M28 0H2a2 2 0 0 0-2 2v26a2 2 0 0 0 2 2h10V17H9v-5h3v-1c0-.958-.005-1.042 0-2 .003-.578 0-1 0-2 .14-.789.33-1.13.775-1.805A4.339 4.339 0 0 1 14.62 3.63a6.476 6.476 0 0 1 1.692-.5c.574-.093 1.152-.13 1.733-.13H22v5c-.807 0-1.193-.004-2 0-2 0-2 1-2 2-.006.801 0 2 0 2h4l-1 5h-3v13h10a2 2 0 0 0 2-2V2a2 2 0 0 0-2-2z"/></symbol><symbol viewBox="0 0 30 30" id="insta" xmlns="http://www.w3.org/2000/svg"><path d="M30 9.591v10.817c0 6.9-2.067 9.592-9.591 9.592H9.59C2.067 30 0 27.307 0 20.408V9.591C0 2.692 2.067 0 9.591 0H20.41C27.933 0 30 2.692 30 9.59zm-5.746 6.913A9.375 9.375 0 0 0 15 5.624a9.375 9.375 0 0 0-8.973 12.099c1.159 3.865 4.742 6.678 8.967 6.678 4.725-.02 8.564-3.439 9.26-7.897zm2.669-11.205c.003-1.19-1.006-2.195-2.202-2.194-1.165.002-2.168 1.003-2.173 2.17a2.212 2.212 0 0 0 2.188 2.205c1.182.001 2.183-.997 2.187-2.181zm-5.94 8.48a6.106 6.106 0 1 1-12.04.446c.384-2.953 2.93-5.326 6.07-5.303 2.87-.023 5.385 2.043 5.97 4.857z"/></symbol><symbol viewBox="0 0 30 25" id="twitter" xmlns="http://www.w3.org/2000/svg"><path d="M0 21.709c3.32.28 6.317-.534 9.031-2.562-2.835-.236-4.726-1.642-5.775-4.275.952.134 1.838.136 2.77-.123-1.47-.342-2.652-1.052-3.56-2.18-.906-1.125-1.357-2.41-1.355-3.905.867.44 1.745.71 2.775.749-1.35-.972-2.22-2.19-2.57-3.742-.348-1.548-.117-3.016.674-4.43C5.341 5.148 9.57 7.293 14.719 7.65c-.444-3.208.649-5.625 3.626-7.034 1.9-.898 4.804-.784 6.974 1.412 1.362-.259 2.646-.748 3.907-1.472-.218.747-.574 1.353-1.013 1.914-.436.557-.966 1.018-1.553 1.424 1.16-.109 2.261-.431 3.34-.854a11.879 11.879 0 0 1-2.98 3.093c.069 5.21-1.647 9.714-5.337 13.413-2.925 2.932-6.532 4.468-10.66 4.812-3.963.331-7.642-.54-11.023-2.648z"/></symbol></svg>