<svg xmlns="http://www.w3.org/2000/svg" width="30" height="19" viewBox="0 0 30 19"><g><g><path fill="#959da8" d="M0 19S-.007 6.312-.007.02C.099.014.198.001.296.001L8.711 0c.971 0 1.937.068 2.88.307.806.204 1.544.552 2.139 1.155.607.616 1.056 1.372 1.185 2.215a5.88 5.88 0 0 1-.037 2.044c-.188.956-.814 1.704-1.58 2.28-.29.218-.606.4-.956.627.174.065.324.12.473.177.61.239 1.174.555 1.636 1.03.57.587 1.178 1.292 1.372 2.082.258 1.051.267 2.103-.043 3.146-.328 1.105-1.242 1.967-2.192 2.608-.955.644-2.026.978-3.158 1.116-.507.062-.918.212-1.43.213-3.274.01-9 0-9 0zm4-3s2.468.018 5 0c.924 0 2.917-.068 3-2.469 0-1.363-.268-2.499-3-2.531-2.632-.031-5 0-5 0zm0-8h4s2.303-.143 2.91-1.683c.178-.452.188-.93.117-1.418C10.87 3.84 9.3 3.015 8 3 4.442 2.96 4 3 4 3zm15.915 3.98c.415 4.18 2.91 4.031 3.942 4.031 1.25 0 2.708-1.035 3.198-2h2.87c-.098.421-.275 1.113-.452 1.491-.83 1.776-2.257 2.98-4.15 3.357-1.497.297-2.849.229-4.307-.285-2.771-.977-3.983-3.614-3.983-7.302 0-3.603 1.752-6.376 4.377-7.037 1.555-.391 3.548-.343 5.039.294 2.695 1.292 3.306 3.934 3.495 7.356 0 .02-.015.04-.037.094h-9.992zm.059-1.98h7.07c-.084-2.583-2.247-2.971-3.56-2.971-1.844 0-3.51 1.123-3.51 2.97zM27 3h-8V1h8v2z"/></g></g></svg>