<svg xmlns="http://www.w3.org/2000/svg" width="30" height="30" viewBox="0 0 30 30"><g><g><path fill="#959da8" d="M15.004 0c8.279.004 15.002 6.731 14.997 15.005-.005 8.28-6.732 15.002-15.006 14.996-8.28-.006-15.001-6.73-14.996-15.005C.004 6.716 6.729-.005 15.004-.001zm1.835 17.384a15.45 15.45 0 0 0-5.152 2.853 17.188 17.188 0 0 0-3.63 4.15c3.63 2.75 8.222 2.752 11.08 1.514a57.66 57.66 0 0 0-2.298-8.517zM3.3 14.834c0 2.911.918 5.45 2.737 7.66.533-.676 1.044-1.345 1.58-1.994a13.876 13.876 0 0 1 1.766-1.81 35.113 35.113 0 0 1 1.99-1.561 13.029 13.029 0 0 1 2.18-1.276c.762-.35 1.535-.675 2.31-1.014l-.663-1.513c-3.881 1.2-7.842 1.594-11.9 1.508zm.335-2.662c3.55.06 6.987-.302 10.364-1.294-1.205-2.275-2.55-4.407-4.18-6.367-3.161 1.667-5.22 4.182-6.184 7.661zm18.638-6.297c-2.878-2.405-6.952-3.035-9.738-2.266.762 1.002 1.493 2.018 2.137 3.093.643 1.073 1.27 2.156 1.905 3.238 1.896-.739 4.25-2.266 5.696-4.065zm-.656 18.741a11.6 11.6 0 0 0 3.69-4.12c.561-1.048.97-2.157 1.173-3.348-2.325-.525-4.641-.728-7.018-.373a61.304 61.304 0 0 1 2.155 7.841zm2.567-16.84c-1.804 2.05-3.998 3.516-6.468 4.615l.783 1.818a20.616 20.616 0 0 1 4.102-.274c1.365.049 2.712.242 4.078.511-.135-2.508-.972-4.697-2.495-6.67z"/></g></g></svg>