<svg xmlns="http://www.w3.org/2000/svg" width="30" height="30" viewBox="0 0 30 30"><g><g><path fill="#959da8" d="M30 9.591v10.817c0 6.9-2.067 9.592-9.591 9.592H9.59C2.067 30 0 27.307 0 20.408V9.591C0 2.692 2.067 0 9.591 0H20.41C27.933 0 30 2.692 30 9.59zm-5.746 6.913A9.375 9.375 0 0 0 15 5.624a9.375 9.375 0 0 0-8.973 12.099c1.159 3.865 4.742 6.678 8.967 6.678 4.725-.02 8.564-3.439 9.26-7.897zm2.669-11.205c.003-1.19-1.006-2.195-2.202-2.194-1.165.002-2.168 1.003-2.173 2.17a2.212 2.212 0 0 0 2.188 2.205c1.182.001 2.183-.997 2.187-2.181zm-5.94 8.48a6.106 6.106 0 1 1-12.04.446c.384-2.953 2.93-5.326 6.07-5.303 2.87-.023 5.385 2.043 5.97 4.857z"/></g></g></svg>