<svg xmlns="http://www.w3.org/2000/svg" width="30" height="25" viewBox="0 0 30 25"><g><g><path fill="#959da8" d="M0 21.709c3.32.28 6.317-.534 9.031-2.562-2.835-.236-4.726-1.642-5.775-4.275.952.134 1.838.136 2.77-.123-1.47-.342-2.652-1.052-3.56-2.18-.906-1.125-1.357-2.41-1.355-3.905.867.44 1.745.71 2.775.749-1.35-.972-2.22-2.19-2.57-3.742-.348-1.548-.117-3.016.674-4.43C5.341 5.148 9.57 7.293 14.719 7.65c-.444-3.208.649-5.625 3.626-7.034 1.9-.898 4.804-.784 6.974 1.412 1.362-.259 2.646-.748 3.907-1.472-.218.747-.574 1.353-1.013 1.914-.436.557-.966 1.018-1.553 1.424 1.16-.109 2.261-.431 3.34-.854a11.879 11.879 0 0 1-2.98 3.093c.069 5.21-1.647 9.714-5.337 13.413-2.925 2.932-6.532 4.468-10.66 4.812-3.963.331-7.642-.54-11.023-2.648z"/></g></g></svg>